<svg xmlns="http://www.w3.org/2000/svg" xmlns:xlink="http://www.w3.org/1999/xlink" width="437" zoomAndPan="magnify" viewBox="0 0 327.75 140.249994" height="187" preserveAspectRatio="xMidYMid meet" version="1.0"><defs><g/><clipPath id="565fd4f09b"><path d="M 2.988281 7.515625 L 136.652344 7.515625 L 136.652344 132.09375 L 2.988281 132.09375 Z M 2.988281 7.515625 " clip-rule="nonzero"/></clipPath><clipPath id="f965ed1e40"><path d="M 69.65625 7.515625 C 32.835938 7.515625 2.988281 35.402344 2.988281 69.804688 C 2.988281 104.207031 32.835938 132.09375 69.65625 132.09375 C 106.476562 132.09375 136.324219 104.207031 136.324219 69.804688 C 136.324219 35.402344 106.476562 7.515625 69.65625 7.515625 " clip-rule="nonzero"/></clipPath></defs><g clip-path="url(#565fd4f09b)"><g clip-path="url(#f965ed1e40)"><path fill="#ffffff" d="M 2.988281 7.515625 L 136.003906 7.515625 L 136.003906 132.09375 L 2.988281 132.09375 Z M 2.988281 7.515625 " fill-opacity="1" fill-rule="nonzero"/></g></g><g fill="#000000" fill-opacity="1"><g transform="translate(25.757763, 86.652712)"><g><path d="M 3.65625 0 L 3.65625 -25.375 L 9.78125 -25.375 L 9.78125 -21.96875 L 10.265625 -21.875 C 11.085938 -23.25 12.054688 -24.253906 13.171875 -24.890625 C 14.285156 -25.535156 15.707031 -25.859375 17.4375 -25.859375 C 19.351562 -25.859375 20.894531 -25.476562 22.0625 -24.71875 C 23.226562 -23.957031 24.082031 -22.851562 24.625 -21.40625 L 25.109375 -21.40625 C 25.890625 -22.914062 26.894531 -24.035156 28.125 -24.765625 C 29.363281 -25.492188 30.90625 -25.859375 32.75 -25.859375 C 38.007812 -25.859375 40.640625 -22.929688 40.640625 -17.078125 L 40.640625 0 L 34.265625 0 L 34.265625 -16.265625 C 34.265625 -17.753906 33.972656 -18.828125 33.390625 -19.484375 C 32.804688 -20.148438 31.867188 -20.484375 30.578125 -20.484375 C 27.078125 -20.484375 25.328125 -18.144531 25.328125 -13.46875 L 25.328125 0 L 18.953125 0 L 18.953125 -16.265625 C 18.953125 -17.753906 18.65625 -18.828125 18.0625 -19.484375 C 17.476562 -20.148438 16.539062 -20.484375 15.25 -20.484375 C 13.613281 -20.484375 12.332031 -19.929688 11.40625 -18.828125 C 10.488281 -17.734375 10.03125 -15.988281 10.03125 -13.59375 L 10.03125 0 Z M 3.65625 0 "/></g></g></g><g fill="#000000" fill-opacity="1"><g transform="translate(69.653102, 86.652712)"><g><path d="M 3.65625 0 L 3.65625 -25.375 L 9.78125 -25.375 L 9.78125 -21.96875 L 10.265625 -21.875 C 11.085938 -23.25 12.054688 -24.253906 13.171875 -24.890625 C 14.285156 -25.535156 15.707031 -25.859375 17.4375 -25.859375 C 19.351562 -25.859375 20.894531 -25.476562 22.0625 -24.71875 C 23.226562 -23.957031 24.082031 -22.851562 24.625 -21.40625 L 25.109375 -21.40625 C 25.890625 -22.914062 26.894531 -24.035156 28.125 -24.765625 C 29.363281 -25.492188 30.90625 -25.859375 32.75 -25.859375 C 38.007812 -25.859375 40.640625 -22.929688 40.640625 -17.078125 L 40.640625 0 L 34.265625 0 L 34.265625 -16.265625 C 34.265625 -17.753906 33.972656 -18.828125 33.390625 -19.484375 C 32.804688 -20.148438 31.867188 -20.484375 30.578125 -20.484375 C 27.078125 -20.484375 25.328125 -18.144531 25.328125 -13.46875 L 25.328125 0 L 18.953125 0 L 18.953125 -16.265625 C 18.953125 -17.753906 18.65625 -18.828125 18.0625 -19.484375 C 17.476562 -20.148438 16.539062 -20.484375 15.25 -20.484375 C 13.613281 -20.484375 12.332031 -19.929688 11.40625 -18.828125 C 10.488281 -17.734375 10.03125 -15.988281 10.03125 -13.59375 L 10.03125 0 Z M 3.65625 0 "/></g></g></g><g fill="#ffffff" fill-opacity="1"><g transform="translate(147.665883, 59.038202)"><g><path d="M 23.4375 -19.1875 L 23.4375 0 L 19.5 0 L 19.5 -11.03125 C 19.5 -11.289062 19.503906 -11.566406 19.515625 -11.859375 C 19.535156 -12.160156 19.5625 -12.46875 19.59375 -12.78125 L 14.5 -2.90625 C 14.34375 -2.601562 14.128906 -2.367188 13.859375 -2.203125 C 13.597656 -2.046875 13.296875 -1.96875 12.953125 -1.96875 L 12.34375 -1.96875 C 12 -1.96875 11.691406 -2.046875 11.421875 -2.203125 C 11.160156 -2.367188 10.945312 -2.601562 10.78125 -2.90625 L 5.6875 -12.796875 C 5.71875 -12.484375 5.738281 -12.175781 5.75 -11.875 C 5.769531 -11.570312 5.78125 -11.289062 5.78125 -11.03125 L 5.78125 0 L 1.859375 0 L 1.859375 -19.1875 L 5.25 -19.1875 C 5.445312 -19.1875 5.617188 -19.179688 5.765625 -19.171875 C 5.910156 -19.171875 6.039062 -19.144531 6.15625 -19.09375 C 6.269531 -19.050781 6.367188 -18.984375 6.453125 -18.890625 C 6.546875 -18.796875 6.640625 -18.664062 6.734375 -18.5 L 11.671875 -8.765625 C 11.847656 -8.429688 12.015625 -8.082031 12.171875 -7.71875 C 12.335938 -7.363281 12.492188 -7 12.640625 -6.625 C 12.796875 -7.007812 12.953125 -7.382812 13.109375 -7.75 C 13.273438 -8.125 13.453125 -8.476562 13.640625 -8.8125 L 18.5625 -18.5 C 18.644531 -18.664062 18.734375 -18.796875 18.828125 -18.890625 C 18.921875 -18.984375 19.023438 -19.050781 19.140625 -19.09375 C 19.253906 -19.144531 19.382812 -19.171875 19.53125 -19.171875 C 19.675781 -19.179688 19.84375 -19.1875 20.03125 -19.1875 Z M 23.4375 -19.1875 "/></g></g></g><g fill="#ffffff" fill-opacity="1"><g transform="translate(172.941248, 59.038202)"><g><path d="M 23.4375 -19.1875 L 23.4375 0 L 19.5 0 L 19.5 -11.03125 C 19.5 -11.289062 19.503906 -11.566406 19.515625 -11.859375 C 19.535156 -12.160156 19.5625 -12.46875 19.59375 -12.78125 L 14.5 -2.90625 C 14.34375 -2.601562 14.128906 -2.367188 13.859375 -2.203125 C 13.597656 -2.046875 13.296875 -1.96875 12.953125 -1.96875 L 12.34375 -1.96875 C 12 -1.96875 11.691406 -2.046875 11.421875 -2.203125 C 11.160156 -2.367188 10.945312 -2.601562 10.78125 -2.90625 L 5.6875 -12.796875 C 5.71875 -12.484375 5.738281 -12.175781 5.75 -11.875 C 5.769531 -11.570312 5.78125 -11.289062 5.78125 -11.03125 L 5.78125 0 L 1.859375 0 L 1.859375 -19.1875 L 5.25 -19.1875 C 5.445312 -19.1875 5.617188 -19.179688 5.765625 -19.171875 C 5.910156 -19.171875 6.039062 -19.144531 6.15625 -19.09375 C 6.269531 -19.050781 6.367188 -18.984375 6.453125 -18.890625 C 6.546875 -18.796875 6.640625 -18.664062 6.734375 -18.5 L 11.671875 -8.765625 C 11.847656 -8.429688 12.015625 -8.082031 12.171875 -7.71875 C 12.335938 -7.363281 12.492188 -7 12.640625 -6.625 C 12.796875 -7.007812 12.953125 -7.382812 13.109375 -7.75 C 13.273438 -8.125 13.453125 -8.476562 13.640625 -8.8125 L 18.5625 -18.5 C 18.644531 -18.664062 18.734375 -18.796875 18.828125 -18.890625 C 18.921875 -18.984375 19.023438 -19.050781 19.140625 -19.09375 C 19.253906 -19.144531 19.382812 -19.171875 19.53125 -19.171875 C 19.675781 -19.179688 19.84375 -19.1875 20.03125 -19.1875 Z M 23.4375 -19.1875 "/></g></g></g><g fill="#ffffff" fill-opacity="1"><g transform="translate(198.216612, 59.038202)"><g/></g></g><g fill="#ffffff" fill-opacity="1"><g transform="translate(204.298504, 59.038202)"><g><path d="M 11.078125 -9.9375 L 17.90625 -9.9375 L 17.90625 -1.84375 C 16.914062 -1.125 15.863281 -0.601562 14.75 -0.28125 C 13.644531 0.0390625 12.488281 0.203125 11.28125 0.203125 C 9.695312 0.203125 8.253906 -0.0390625 6.953125 -0.53125 C 5.660156 -1.03125 4.550781 -1.71875 3.625 -2.59375 C 2.707031 -3.46875 2 -4.503906 1.5 -5.703125 C 1 -6.898438 0.75 -8.203125 0.75 -9.609375 C 0.75 -11.035156 0.984375 -12.347656 1.453125 -13.546875 C 1.929688 -14.742188 2.613281 -15.773438 3.5 -16.640625 C 4.382812 -17.515625 5.453125 -18.191406 6.703125 -18.671875 C 7.953125 -19.160156 9.347656 -19.40625 10.890625 -19.40625 C 11.691406 -19.40625 12.441406 -19.335938 13.140625 -19.203125 C 13.847656 -19.066406 14.5 -18.882812 15.09375 -18.65625 C 15.6875 -18.4375 16.226562 -18.164062 16.71875 -17.84375 C 17.207031 -17.53125 17.644531 -17.191406 18.03125 -16.828125 L 16.734375 -14.859375 C 16.535156 -14.546875 16.273438 -14.351562 15.953125 -14.28125 C 15.640625 -14.21875 15.296875 -14.300781 14.921875 -14.53125 C 14.566406 -14.738281 14.234375 -14.921875 13.921875 -15.078125 C 13.617188 -15.234375 13.300781 -15.359375 12.96875 -15.453125 C 12.644531 -15.546875 12.300781 -15.613281 11.9375 -15.65625 C 11.582031 -15.707031 11.179688 -15.734375 10.734375 -15.734375 C 9.898438 -15.734375 9.148438 -15.582031 8.484375 -15.28125 C 7.816406 -14.988281 7.25 -14.570312 6.78125 -14.03125 C 6.3125 -13.5 5.945312 -12.859375 5.6875 -12.109375 C 5.4375 -11.359375 5.3125 -10.523438 5.3125 -9.609375 C 5.3125 -8.585938 5.453125 -7.679688 5.734375 -6.890625 C 6.015625 -6.097656 6.410156 -5.425781 6.921875 -4.875 C 7.429688 -4.332031 8.046875 -3.921875 8.765625 -3.640625 C 9.484375 -3.359375 10.273438 -3.21875 11.140625 -3.21875 C 11.679688 -3.21875 12.164062 -3.269531 12.59375 -3.375 C 13.03125 -3.476562 13.457031 -3.617188 13.875 -3.796875 L 13.875 -6.703125 L 11.96875 -6.703125 C 11.6875 -6.703125 11.46875 -6.773438 11.3125 -6.921875 C 11.15625 -7.078125 11.078125 -7.269531 11.078125 -7.5 Z M 11.078125 -9.9375 "/></g></g></g><g fill="#ffffff" fill-opacity="1"><g transform="translate(223.32084, 59.038202)"><g><path d="M 13.421875 -3.5625 L 13.421875 0 L 1.859375 0 L 1.859375 -19.1875 L 6.3125 -19.1875 L 6.3125 -3.5625 Z M 13.421875 -3.5625 "/></g></g></g><g fill="#ffffff" fill-opacity="1"><g transform="translate(237.143307, 59.038202)"><g><path d="M 20.6875 -9.609375 C 20.6875 -8.210938 20.445312 -6.914062 19.96875 -5.71875 C 19.488281 -4.53125 18.816406 -3.492188 17.953125 -2.609375 C 17.085938 -1.734375 16.039062 -1.046875 14.8125 -0.546875 C 13.582031 -0.046875 12.222656 0.203125 10.734375 0.203125 C 9.242188 0.203125 7.882812 -0.046875 6.65625 -0.546875 C 5.425781 -1.046875 4.375 -1.734375 3.5 -2.609375 C 2.625 -3.492188 1.945312 -4.53125 1.46875 -5.71875 C 0.988281 -6.914062 0.75 -8.210938 0.75 -9.609375 C 0.75 -10.992188 0.988281 -12.28125 1.46875 -13.46875 C 1.945312 -14.664062 2.625 -15.703125 3.5 -16.578125 C 4.375 -17.460938 5.425781 -18.15625 6.65625 -18.65625 C 7.882812 -19.15625 9.242188 -19.40625 10.734375 -19.40625 C 12.222656 -19.40625 13.582031 -19.148438 14.8125 -18.640625 C 16.039062 -18.140625 17.085938 -17.445312 17.953125 -16.5625 C 18.816406 -15.6875 19.488281 -14.648438 19.96875 -13.453125 C 20.445312 -12.265625 20.6875 -10.984375 20.6875 -9.609375 Z M 16.140625 -9.609375 C 16.140625 -10.554688 16.015625 -11.40625 15.765625 -12.15625 C 15.515625 -12.914062 15.160156 -13.5625 14.703125 -14.09375 C 14.242188 -14.625 13.679688 -15.03125 13.015625 -15.3125 C 12.347656 -15.59375 11.585938 -15.734375 10.734375 -15.734375 C 9.867188 -15.734375 9.097656 -15.59375 8.421875 -15.3125 C 7.753906 -15.03125 7.191406 -14.625 6.734375 -14.09375 C 6.273438 -13.5625 5.921875 -12.914062 5.671875 -12.15625 C 5.429688 -11.40625 5.3125 -10.554688 5.3125 -9.609375 C 5.3125 -8.648438 5.429688 -7.789062 5.671875 -7.03125 C 5.921875 -6.269531 6.273438 -5.625 6.734375 -5.09375 C 7.191406 -4.570312 7.753906 -4.171875 8.421875 -3.890625 C 9.097656 -3.617188 9.867188 -3.484375 10.734375 -3.484375 C 11.585938 -3.484375 12.347656 -3.617188 13.015625 -3.890625 C 13.679688 -4.171875 14.242188 -4.570312 14.703125 -5.09375 C 15.160156 -5.625 15.515625 -6.269531 15.765625 -7.03125 C 16.015625 -7.789062 16.140625 -8.648438 16.140625 -9.609375 Z M 16.140625 -9.609375 "/></g></g></g><g fill="#ffffff" fill-opacity="1"><g transform="translate(258.587869, 59.038202)"><g><path d="M 9.4375 -3.359375 C 10.03125 -3.359375 10.515625 -3.429688 10.890625 -3.578125 C 11.265625 -3.734375 11.554688 -3.925781 11.765625 -4.15625 C 11.972656 -4.394531 12.113281 -4.660156 12.1875 -4.953125 C 12.269531 -5.253906 12.3125 -5.5625 12.3125 -5.875 C 12.3125 -6.226562 12.265625 -6.546875 12.171875 -6.828125 C 12.085938 -7.109375 11.929688 -7.34375 11.703125 -7.53125 C 11.484375 -7.726562 11.1875 -7.878906 10.8125 -7.984375 C 10.445312 -8.085938 9.984375 -8.140625 9.421875 -8.140625 L 6.3125 -8.140625 L 6.3125 -3.359375 Z M 6.3125 -15.859375 L 6.3125 -11.109375 L 8.625 -11.109375 C 9.113281 -11.109375 9.554688 -11.144531 9.953125 -11.21875 C 10.347656 -11.289062 10.679688 -11.414062 10.953125 -11.59375 C 11.234375 -11.769531 11.445312 -12.007812 11.59375 -12.3125 C 11.738281 -12.625 11.8125 -13.007812 11.8125 -13.46875 C 11.8125 -13.925781 11.753906 -14.304688 11.640625 -14.609375 C 11.523438 -14.910156 11.347656 -15.15625 11.109375 -15.34375 C 10.878906 -15.53125 10.582031 -15.660156 10.21875 -15.734375 C 9.851562 -15.816406 9.421875 -15.859375 8.921875 -15.859375 Z M 8.921875 -19.1875 C 10.242188 -19.1875 11.367188 -19.0625 12.296875 -18.8125 C 13.234375 -18.570312 13.992188 -18.226562 14.578125 -17.78125 C 15.171875 -17.332031 15.597656 -16.785156 15.859375 -16.140625 C 16.128906 -15.503906 16.265625 -14.789062 16.265625 -14 C 16.265625 -13.570312 16.203125 -13.15625 16.078125 -12.75 C 15.960938 -12.351562 15.769531 -11.976562 15.5 -11.625 C 15.238281 -11.28125 14.898438 -10.960938 14.484375 -10.671875 C 14.078125 -10.390625 13.582031 -10.144531 13 -9.9375 C 14.257812 -9.625 15.191406 -9.125 15.796875 -8.4375 C 16.410156 -7.757812 16.71875 -6.875 16.71875 -5.78125 C 16.71875 -4.96875 16.554688 -4.207031 16.234375 -3.5 C 15.921875 -2.800781 15.457031 -2.1875 14.84375 -1.65625 C 14.238281 -1.132812 13.488281 -0.726562 12.59375 -0.4375 C 11.695312 -0.144531 10.671875 0 9.515625 0 L 1.859375 0 L 1.859375 -19.1875 Z M 8.921875 -19.1875 "/></g></g></g><g fill="#ffffff" fill-opacity="1"><g transform="translate(276.214798, 59.038202)"><g><path d="M 12 -7.34375 L 10.21875 -12.59375 C 10.09375 -12.925781 9.953125 -13.316406 9.796875 -13.765625 C 9.648438 -14.222656 9.503906 -14.710938 9.359375 -15.234375 C 9.222656 -14.703125 9.078125 -14.207031 8.921875 -13.75 C 8.773438 -13.289062 8.640625 -12.894531 8.515625 -12.5625 L 6.75 -7.34375 Z M 19.078125 0 L 15.625 0 C 15.238281 0 14.925781 -0.0859375 14.6875 -0.265625 C 14.445312 -0.453125 14.265625 -0.6875 14.140625 -0.96875 L 13.015625 -4.3125 L 5.71875 -4.3125 L 4.578125 -0.96875 C 4.484375 -0.71875 4.3125 -0.492188 4.0625 -0.296875 C 3.8125 -0.0976562 3.503906 0 3.140625 0 L -0.34375 0 L 7.09375 -19.1875 L 11.640625 -19.1875 Z M 19.078125 0 "/></g></g></g><g fill="#ffffff" fill-opacity="1"><g transform="translate(294.934373, 59.038202)"><g><path d="M 13.421875 -3.5625 L 13.421875 0 L 1.859375 0 L 1.859375 -19.1875 L 6.3125 -19.1875 L 6.3125 -3.5625 Z M 13.421875 -3.5625 "/></g></g></g><g fill="#ffffff" fill-opacity="1"><g transform="translate(308.750022, 59.038202)"><g/></g></g><g fill="#ffffff" fill-opacity="1"><g transform="translate(143.123563, 94.928141)"><g><path d="M 12.453125 -15.296875 C 12.328125 -15.078125 12.191406 -14.914062 12.046875 -14.8125 C 11.898438 -14.707031 11.710938 -14.65625 11.484375 -14.65625 C 11.285156 -14.65625 11.066406 -14.71875 10.828125 -14.84375 C 10.597656 -14.976562 10.335938 -15.125 10.046875 -15.28125 C 9.753906 -15.4375 9.414062 -15.578125 9.03125 -15.703125 C 8.65625 -15.835938 8.226562 -15.90625 7.75 -15.90625 C 6.914062 -15.90625 6.289062 -15.722656 5.875 -15.359375 C 5.46875 -15.003906 5.265625 -14.523438 5.265625 -13.921875 C 5.265625 -13.535156 5.382812 -13.210938 5.625 -12.953125 C 5.875 -12.703125 6.195312 -12.484375 6.59375 -12.296875 C 7 -12.117188 7.457031 -11.953125 7.96875 -11.796875 C 8.488281 -11.640625 9.015625 -11.46875 9.546875 -11.28125 C 10.085938 -11.09375 10.613281 -10.867188 11.125 -10.609375 C 11.632812 -10.359375 12.085938 -10.035156 12.484375 -9.640625 C 12.890625 -9.242188 13.210938 -8.757812 13.453125 -8.1875 C 13.703125 -7.625 13.828125 -6.945312 13.828125 -6.15625 C 13.828125 -5.269531 13.671875 -4.4375 13.359375 -3.65625 C 13.054688 -2.882812 12.613281 -2.210938 12.03125 -1.640625 C 11.445312 -1.066406 10.726562 -0.613281 9.875 -0.28125 C 9.019531 0.0390625 8.046875 0.203125 6.953125 0.203125 C 6.359375 0.203125 5.75 0.140625 5.125 0.015625 C 4.507812 -0.0976562 3.910156 -0.265625 3.328125 -0.484375 C 2.753906 -0.710938 2.210938 -0.976562 1.703125 -1.28125 C 1.191406 -1.59375 0.75 -1.9375 0.375 -2.3125 L 1.6875 -4.40625 C 1.789062 -4.550781 1.925781 -4.671875 2.09375 -4.765625 C 2.269531 -4.867188 2.457031 -4.921875 2.65625 -4.921875 C 2.925781 -4.921875 3.191406 -4.835938 3.453125 -4.671875 C 3.722656 -4.503906 4.023438 -4.316406 4.359375 -4.109375 C 4.703125 -3.910156 5.09375 -3.726562 5.53125 -3.5625 C 5.96875 -3.394531 6.488281 -3.3125 7.09375 -3.3125 C 7.894531 -3.3125 8.519531 -3.488281 8.96875 -3.84375 C 9.414062 -4.207031 9.640625 -4.773438 9.640625 -5.546875 C 9.640625 -5.992188 9.515625 -6.359375 9.265625 -6.640625 C 9.023438 -6.921875 8.703125 -7.148438 8.296875 -7.328125 C 7.898438 -7.515625 7.445312 -7.675781 6.9375 -7.8125 C 6.425781 -7.957031 5.90625 -8.113281 5.375 -8.28125 C 4.84375 -8.457031 4.320312 -8.671875 3.8125 -8.921875 C 3.300781 -9.171875 2.84375 -9.5 2.4375 -9.90625 C 2.039062 -10.320312 1.71875 -10.832031 1.46875 -11.4375 C 1.226562 -12.050781 1.109375 -12.804688 1.109375 -13.703125 C 1.109375 -14.421875 1.25 -15.117188 1.53125 -15.796875 C 1.820312 -16.484375 2.25 -17.09375 2.8125 -17.625 C 3.375 -18.164062 4.0625 -18.597656 4.875 -18.921875 C 5.695312 -19.242188 6.632812 -19.40625 7.6875 -19.40625 C 8.28125 -19.40625 8.851562 -19.359375 9.40625 -19.265625 C 9.96875 -19.171875 10.5 -19.03125 11 -18.84375 C 11.5 -18.664062 11.960938 -18.453125 12.390625 -18.203125 C 12.828125 -17.953125 13.21875 -17.671875 13.5625 -17.359375 Z M 12.453125 -15.296875 "/></g></g></g><g fill="#ffffff" fill-opacity="1"><g transform="translate(157.709546, 94.928141)"><g><path d="M 9.859375 -3.515625 C 10.460938 -3.515625 11 -3.613281 11.46875 -3.8125 C 11.9375 -4.007812 12.332031 -4.289062 12.65625 -4.65625 C 12.976562 -5.03125 13.222656 -5.484375 13.390625 -6.015625 C 13.566406 -6.546875 13.65625 -7.148438 13.65625 -7.828125 L 13.65625 -19.1875 L 18.109375 -19.1875 L 18.109375 -7.828125 C 18.109375 -6.648438 17.914062 -5.566406 17.53125 -4.578125 C 17.15625 -3.597656 16.609375 -2.75 15.890625 -2.03125 C 15.179688 -1.320312 14.316406 -0.769531 13.296875 -0.375 C 12.285156 0.0078125 11.140625 0.203125 9.859375 0.203125 C 8.578125 0.203125 7.425781 0.0078125 6.40625 -0.375 C 5.394531 -0.769531 4.53125 -1.320312 3.8125 -2.03125 C 3.101562 -2.75 2.5625 -3.597656 2.1875 -4.578125 C 1.8125 -5.566406 1.625 -6.648438 1.625 -7.828125 L 1.625 -19.1875 L 6.078125 -19.1875 L 6.078125 -7.84375 C 6.078125 -7.164062 6.160156 -6.5625 6.328125 -6.03125 C 6.503906 -5.5 6.753906 -5.046875 7.078125 -4.671875 C 7.398438 -4.296875 7.796875 -4.007812 8.265625 -3.8125 C 8.734375 -3.613281 9.265625 -3.515625 9.859375 -3.515625 Z M 9.859375 -3.515625 "/></g></g></g><g fill="#ffffff" fill-opacity="1"><g transform="translate(177.429598, 94.928141)"><g><path d="M 23.4375 -19.1875 L 23.4375 0 L 19.5 0 L 19.5 -11.03125 C 19.5 -11.289062 19.503906 -11.566406 19.515625 -11.859375 C 19.535156 -12.160156 19.5625 -12.46875 19.59375 -12.78125 L 14.5 -2.90625 C 14.34375 -2.601562 14.128906 -2.367188 13.859375 -2.203125 C 13.597656 -2.046875 13.296875 -1.96875 12.953125 -1.96875 L 12.34375 -1.96875 C 12 -1.96875 11.691406 -2.046875 11.421875 -2.203125 C 11.160156 -2.367188 10.945312 -2.601562 10.78125 -2.90625 L 5.6875 -12.796875 C 5.71875 -12.484375 5.738281 -12.175781 5.75 -11.875 C 5.769531 -11.570312 5.78125 -11.289062 5.78125 -11.03125 L 5.78125 0 L 1.859375 0 L 1.859375 -19.1875 L 5.25 -19.1875 C 5.445312 -19.1875 5.617188 -19.179688 5.765625 -19.171875 C 5.910156 -19.171875 6.039062 -19.144531 6.15625 -19.09375 C 6.269531 -19.050781 6.367188 -18.984375 6.453125 -18.890625 C 6.546875 -18.796875 6.640625 -18.664062 6.734375 -18.5 L 11.671875 -8.765625 C 11.847656 -8.429688 12.015625 -8.082031 12.171875 -7.71875 C 12.335938 -7.363281 12.492188 -7 12.640625 -6.625 C 12.796875 -7.007812 12.953125 -7.382812 13.109375 -7.75 C 13.273438 -8.125 13.453125 -8.476562 13.640625 -8.8125 L 18.5625 -18.5 C 18.644531 -18.664062 18.734375 -18.796875 18.828125 -18.890625 C 18.921875 -18.984375 19.023438 -19.050781 19.140625 -19.09375 C 19.253906 -19.144531 19.382812 -19.171875 19.53125 -19.171875 C 19.675781 -19.179688 19.84375 -19.1875 20.03125 -19.1875 Z M 23.4375 -19.1875 "/></g></g></g><g fill="#ffffff" fill-opacity="1"><g transform="translate(202.704963, 94.928141)"><g><path d="M 23.4375 -19.1875 L 23.4375 0 L 19.5 0 L 19.5 -11.03125 C 19.5 -11.289062 19.503906 -11.566406 19.515625 -11.859375 C 19.535156 -12.160156 19.5625 -12.46875 19.59375 -12.78125 L 14.5 -2.90625 C 14.34375 -2.601562 14.128906 -2.367188 13.859375 -2.203125 C 13.597656 -2.046875 13.296875 -1.96875 12.953125 -1.96875 L 12.34375 -1.96875 C 12 -1.96875 11.691406 -2.046875 11.421875 -2.203125 C 11.160156 -2.367188 10.945312 -2.601562 10.78125 -2.90625 L 5.6875 -12.796875 C 5.71875 -12.484375 5.738281 -12.175781 5.75 -11.875 C 5.769531 -11.570312 5.78125 -11.289062 5.78125 -11.03125 L 5.78125 0 L 1.859375 0 L 1.859375 -19.1875 L 5.25 -19.1875 C 5.445312 -19.1875 5.617188 -19.179688 5.765625 -19.171875 C 5.910156 -19.171875 6.039062 -19.144531 6.15625 -19.09375 C 6.269531 -19.050781 6.367188 -18.984375 6.453125 -18.890625 C 6.546875 -18.796875 6.640625 -18.664062 6.734375 -18.5 L 11.671875 -8.765625 C 11.847656 -8.429688 12.015625 -8.082031 12.171875 -7.71875 C 12.335938 -7.363281 12.492188 -7 12.640625 -6.625 C 12.796875 -7.007812 12.953125 -7.382812 13.109375 -7.75 C 13.273438 -8.125 13.453125 -8.476562 13.640625 -8.8125 L 18.5625 -18.5 C 18.644531 -18.664062 18.734375 -18.796875 18.828125 -18.890625 C 18.921875 -18.984375 19.023438 -19.050781 19.140625 -19.09375 C 19.253906 -19.144531 19.382812 -19.171875 19.53125 -19.171875 C 19.675781 -19.179688 19.84375 -19.1875 20.03125 -19.1875 Z M 23.4375 -19.1875 "/></g></g></g><g fill="#ffffff" fill-opacity="1"><g transform="translate(227.980327, 94.928141)"><g><path d="M 6.328125 0 L 1.859375 0 L 1.859375 -19.1875 L 6.328125 -19.1875 Z M 6.328125 0 "/></g></g></g><g fill="#ffffff" fill-opacity="1"><g transform="translate(236.168486, 94.928141)"><g><path d="M 15.640625 -15.65625 L 10.25 -15.65625 L 10.25 0 L 5.796875 0 L 5.796875 -15.65625 L 0.390625 -15.65625 L 0.390625 -19.1875 L 15.640625 -19.1875 Z M 15.640625 -15.65625 "/></g></g></g><g fill="#ffffff" fill-opacity="1"><g transform="translate(252.202558, 94.928141)"><g/></g></g><g fill="#ffffff" fill-opacity="1"><g transform="translate(258.28445, 94.928141)"><g><path d="M 12.859375 -3.6875 C 13.296875 -3.6875 13.640625 -3.566406 13.890625 -3.328125 C 14.148438 -3.085938 14.28125 -2.769531 14.28125 -2.375 L 14.28125 0 L 0.796875 0 L 0.796875 -1.3125 C 0.796875 -1.570312 0.847656 -1.84375 0.953125 -2.125 C 1.054688 -2.414062 1.238281 -2.679688 1.5 -2.921875 L 7.03125 -8.5 C 7.507812 -8.96875 7.921875 -9.414062 8.265625 -9.84375 C 8.617188 -10.28125 8.910156 -10.707031 9.140625 -11.125 C 9.367188 -11.539062 9.539062 -11.957031 9.65625 -12.375 C 9.769531 -12.789062 9.828125 -13.234375 9.828125 -13.703125 C 9.828125 -14.460938 9.644531 -15.046875 9.28125 -15.453125 C 8.914062 -15.859375 8.359375 -16.0625 7.609375 -16.0625 C 7.003906 -16.0625 6.492188 -15.898438 6.078125 -15.578125 C 5.660156 -15.265625 5.375 -14.867188 5.21875 -14.390625 C 5.03125 -13.910156 4.785156 -13.59375 4.484375 -13.4375 C 4.191406 -13.28125 3.769531 -13.242188 3.21875 -13.328125 L 1.046875 -13.71875 C 1.191406 -14.664062 1.460938 -15.492188 1.859375 -16.203125 C 2.265625 -16.921875 2.757812 -17.515625 3.34375 -17.984375 C 3.9375 -18.460938 4.613281 -18.816406 5.375 -19.046875 C 6.144531 -19.285156 6.96875 -19.40625 7.84375 -19.40625 C 8.789062 -19.40625 9.644531 -19.265625 10.40625 -18.984375 C 11.164062 -18.710938 11.8125 -18.328125 12.34375 -17.828125 C 12.882812 -17.335938 13.296875 -16.753906 13.578125 -16.078125 C 13.867188 -15.398438 14.015625 -14.648438 14.015625 -13.828125 C 14.015625 -13.128906 13.914062 -12.476562 13.71875 -11.875 C 13.519531 -11.28125 13.25 -10.710938 12.90625 -10.171875 C 12.5625 -9.628906 12.160156 -9.101562 11.703125 -8.59375 C 11.253906 -8.09375 10.78125 -7.585938 10.28125 -7.078125 L 6.515625 -3.234375 C 7.003906 -3.378906 7.484375 -3.488281 7.953125 -3.5625 C 8.429688 -3.644531 8.867188 -3.6875 9.265625 -3.6875 Z M 12.859375 -3.6875 "/></g></g></g><g fill="#ffffff" fill-opacity="1"><g transform="translate(273.55498, 94.928141)"><g><path d="M 14.75 -9.609375 C 14.75 -7.929688 14.566406 -6.472656 14.203125 -5.234375 C 13.847656 -4.003906 13.351562 -2.984375 12.71875 -2.171875 C 12.082031 -1.367188 11.328125 -0.769531 10.453125 -0.375 C 9.578125 0.0078125 8.628906 0.203125 7.609375 0.203125 C 6.585938 0.203125 5.644531 0.0078125 4.78125 -0.375 C 3.914062 -0.769531 3.164062 -1.367188 2.53125 -2.171875 C 1.90625 -2.984375 1.414062 -4.003906 1.0625 -5.234375 C 0.707031 -6.472656 0.53125 -7.929688 0.53125 -9.609375 C 0.53125 -11.285156 0.707031 -12.738281 1.0625 -13.96875 C 1.414062 -15.195312 1.90625 -16.210938 2.53125 -17.015625 C 3.164062 -17.828125 3.914062 -18.425781 4.78125 -18.8125 C 5.644531 -19.207031 6.585938 -19.40625 7.609375 -19.40625 C 8.628906 -19.40625 9.578125 -19.207031 10.453125 -18.8125 C 11.328125 -18.425781 12.082031 -17.828125 12.71875 -17.015625 C 13.351562 -16.210938 13.847656 -15.195312 14.203125 -13.96875 C 14.566406 -12.738281 14.75 -11.285156 14.75 -9.609375 Z M 10.53125 -9.609375 C 10.53125 -10.929688 10.445312 -12.015625 10.28125 -12.859375 C 10.113281 -13.710938 9.890625 -14.378906 9.609375 -14.859375 C 9.335938 -15.335938 9.023438 -15.664062 8.671875 -15.84375 C 8.328125 -16.03125 7.972656 -16.125 7.609375 -16.125 C 7.253906 -16.125 6.898438 -16.03125 6.546875 -15.84375 C 6.203125 -15.664062 5.894531 -15.335938 5.625 -14.859375 C 5.363281 -14.378906 5.148438 -13.710938 4.984375 -12.859375 C 4.816406 -12.015625 4.734375 -10.929688 4.734375 -9.609375 C 4.734375 -8.265625 4.816406 -7.171875 4.984375 -6.328125 C 5.148438 -5.492188 5.363281 -4.832031 5.625 -4.34375 C 5.894531 -3.851562 6.203125 -3.515625 6.546875 -3.328125 C 6.898438 -3.148438 7.253906 -3.0625 7.609375 -3.0625 C 7.972656 -3.0625 8.328125 -3.148438 8.671875 -3.328125 C 9.023438 -3.515625 9.335938 -3.851562 9.609375 -4.34375 C 9.890625 -4.832031 10.113281 -5.492188 10.28125 -6.328125 C 10.445312 -7.171875 10.53125 -8.265625 10.53125 -9.609375 Z M 10.53125 -9.609375 "/></g></g></g><g fill="#ffffff" fill-opacity="1"><g transform="translate(288.825509, 94.928141)"><g><path d="M 12.859375 -3.6875 C 13.296875 -3.6875 13.640625 -3.566406 13.890625 -3.328125 C 14.148438 -3.085938 14.28125 -2.769531 14.28125 -2.375 L 14.28125 0 L 0.796875 0 L 0.796875 -1.3125 C 0.796875 -1.570312 0.847656 -1.84375 0.953125 -2.125 C 1.054688 -2.414062 1.238281 -2.679688 1.5 -2.921875 L 7.03125 -8.5 C 7.507812 -8.96875 7.921875 -9.414062 8.265625 -9.84375 C 8.617188 -10.28125 8.910156 -10.707031 9.140625 -11.125 C 9.367188 -11.539062 9.539062 -11.957031 9.65625 -12.375 C 9.769531 -12.789062 9.828125 -13.234375 9.828125 -13.703125 C 9.828125 -14.460938 9.644531 -15.046875 9.28125 -15.453125 C 8.914062 -15.859375 8.359375 -16.0625 7.609375 -16.0625 C 7.003906 -16.0625 6.492188 -15.898438 6.078125 -15.578125 C 5.660156 -15.265625 5.375 -14.867188 5.21875 -14.390625 C 5.03125 -13.910156 4.785156 -13.59375 4.484375 -13.4375 C 4.191406 -13.28125 3.769531 -13.242188 3.21875 -13.328125 L 1.046875 -13.71875 C 1.191406 -14.664062 1.460938 -15.492188 1.859375 -16.203125 C 2.265625 -16.921875 2.757812 -17.515625 3.34375 -17.984375 C 3.9375 -18.460938 4.613281 -18.816406 5.375 -19.046875 C 6.144531 -19.285156 6.96875 -19.40625 7.84375 -19.40625 C 8.789062 -19.40625 9.644531 -19.265625 10.40625 -18.984375 C 11.164062 -18.710938 11.8125 -18.328125 12.34375 -17.828125 C 12.882812 -17.335938 13.296875 -16.753906 13.578125 -16.078125 C 13.867188 -15.398438 14.015625 -14.648438 14.015625 -13.828125 C 14.015625 -13.128906 13.914062 -12.476562 13.71875 -11.875 C 13.519531 -11.28125 13.25 -10.710938 12.90625 -10.171875 C 12.5625 -9.628906 12.160156 -9.101562 11.703125 -8.59375 C 11.253906 -8.09375 10.78125 -7.585938 10.28125 -7.078125 L 6.515625 -3.234375 C 7.003906 -3.378906 7.484375 -3.488281 7.953125 -3.5625 C 8.429688 -3.644531 8.867188 -3.6875 9.265625 -3.6875 Z M 12.859375 -3.6875 "/></g></g></g><g fill="#ffffff" fill-opacity="1"><g transform="translate(304.096038, 94.928141)"><g><path d="M 1.15625 -13.71875 C 1.300781 -14.664062 1.570312 -15.492188 1.96875 -16.203125 C 2.363281 -16.921875 2.859375 -17.515625 3.453125 -17.984375 C 4.046875 -18.460938 4.722656 -18.816406 5.484375 -19.046875 C 6.253906 -19.285156 7.078125 -19.40625 7.953125 -19.40625 C 8.898438 -19.40625 9.742188 -19.269531 10.484375 -19 C 11.222656 -18.726562 11.847656 -18.363281 12.359375 -17.90625 C 12.867188 -17.457031 13.253906 -16.929688 13.515625 -16.328125 C 13.773438 -15.722656 13.90625 -15.085938 13.90625 -14.421875 C 13.90625 -13.816406 13.84375 -13.28125 13.71875 -12.8125 C 13.601562 -12.351562 13.421875 -11.953125 13.171875 -11.609375 C 12.929688 -11.273438 12.632812 -10.992188 12.28125 -10.765625 C 11.925781 -10.535156 11.519531 -10.34375 11.0625 -10.1875 C 13.1875 -9.4375 14.25 -7.984375 14.25 -5.828125 C 14.25 -4.816406 14.0625 -3.929688 13.6875 -3.171875 C 13.320312 -2.421875 12.828125 -1.796875 12.203125 -1.296875 C 11.585938 -0.796875 10.875 -0.421875 10.0625 -0.171875 C 9.25 0.078125 8.398438 0.203125 7.515625 0.203125 C 6.597656 0.203125 5.78125 0.109375 5.0625 -0.078125 C 4.351562 -0.273438 3.722656 -0.582031 3.171875 -1 C 2.617188 -1.425781 2.132812 -1.960938 1.71875 -2.609375 C 1.300781 -3.253906 0.9375 -4.023438 0.625 -4.921875 L 2.453125 -5.65625 C 2.921875 -5.84375 3.359375 -5.890625 3.765625 -5.796875 C 4.171875 -5.710938 4.460938 -5.515625 4.640625 -5.203125 C 5.035156 -4.472656 5.453125 -3.941406 5.890625 -3.609375 C 6.335938 -3.285156 6.859375 -3.125 7.453125 -3.125 C 7.910156 -3.125 8.304688 -3.195312 8.640625 -3.34375 C 8.984375 -3.5 9.265625 -3.695312 9.484375 -3.9375 C 9.710938 -4.1875 9.882812 -4.460938 10 -4.765625 C 10.113281 -5.078125 10.171875 -5.390625 10.171875 -5.703125 C 10.171875 -6.117188 10.140625 -6.488281 10.078125 -6.8125 C 10.023438 -7.144531 9.863281 -7.425781 9.59375 -7.65625 C 9.332031 -7.894531 8.9375 -8.078125 8.40625 -8.203125 C 7.875 -8.335938 7.132812 -8.40625 6.1875 -8.40625 L 6.1875 -11.21875 C 6.988281 -11.21875 7.632812 -11.28125 8.125 -11.40625 C 8.613281 -11.53125 8.992188 -11.695312 9.265625 -11.90625 C 9.535156 -12.125 9.710938 -12.382812 9.796875 -12.6875 C 9.890625 -13 9.9375 -13.34375 9.9375 -13.71875 C 9.9375 -14.46875 9.753906 -15.046875 9.390625 -15.453125 C 9.023438 -15.859375 8.46875 -16.0625 7.71875 -16.0625 C 7.113281 -16.0625 6.601562 -15.898438 6.1875 -15.578125 C 5.769531 -15.265625 5.484375 -14.867188 5.328125 -14.390625 C 5.140625 -13.910156 4.894531 -13.59375 4.59375 -13.4375 C 4.300781 -13.28125 3.875 -13.242188 3.3125 -13.328125 Z M 1.15625 -13.71875 "/></g></g></g></svg>